<svg xmlns="http://www.w3.org/2000/svg" style="display: none;">
  
    <symbol id="icon-flash" viewBox="0 0 512 512">
      <path d="m96 288l147 0-51 192 224-256-147 0 51-192z"/>
    </symbol>
  
    <symbol id="icon-android-close" viewBox="0 0 512 512">
      <path d="m405 137l-30-30-119 119-119-119-30 30 119 119-119 119 30 30 119-119 119 119 30-30-119-119z"/>
    </symbol>
  
    <symbol id="icon-android-remove" viewBox="0 0 512 512">
      <path d="m96 235l320 0 0 42-320 0z"/>
    </symbol>
  
    <symbol id="icon-fontawesome-webfont" viewBox="0 0 512 512">
      <path d="m475 256c0 48-14 91-41 129c-28 38-64 65-109 79c-5 1-8 1-11-2c-2-2-3-5-3-8l0-61c0-18-5-32-15-40c11-1 20-3 29-5c9-3 18-6 27-11c9-6 17-12 23-19c6-8 11-18 15-30c4-13 6-27 6-43c0-23-8-43-23-59c7-18 7-37-2-59c-5-1-13 0-23 4c-10 3-19 8-26 12l-11 7c-18-5-36-7-55-7c-19 0-37 2-55 7c-3-2-7-5-12-8c-5-3-13-6-24-11c-11-4-19-5-24-4c-9 22-9 41-2 59c-15 16-23 36-23 59c0 16 2 30 6 42c4 13 9 23 15 30c6 8 14 14 23 20c9 5 18 8 27 11c8 2 18 4 29 5c-8 7-12 17-14 29c-4 2-8 4-13 5c-4 1-10 1-16 1c-6 0-13-2-19-6c-6-4-11-10-16-18c-3-6-8-11-14-15c-5-4-10-6-14-7l-5-1c-4 0-7 1-9 2c-1 1-2 2-1 3c0 1 1 3 2 4c2 1 3 2 4 3l2 2c4 2 8 5 13 11c4 5 7 10 9 14l2 7c3 7 7 13 13 17c6 5 12 8 19 9c7 1 14 2 20 2c6 0 12 0 16-1l6-1c0 7 0 16 1 25c0 10 0 15 0 16c0 3-2 6-4 8c-2 3-6 3-11 2c-45-14-81-41-109-79c-27-38-41-81-41-129c0-40 9-77 29-110c20-34 46-60 80-80c33-20 70-29 110-29c40 0 77 9 110 29c34 20 60 46 80 80c20 33 29 70 29 110z"/>
    </symbol>
  
    <symbol id="icon-android-add" viewBox="0 0 512 512">
      <path d="m416 277l-139 0 0 139-42 0 0-139-139 0 0-42 139 0 0-139 42 0 0 139 139 0z"/>
    </symbol>
  
    <symbol id="icon-square-o" viewBox="0 0 512 512">
      <path d="m375 73l-238 0c-12 0-23 5-32 14-9 9-14 19-14 32l0 238c0 12 5 23 14 32 9 9 20 13 32 13l238 0c12 0 23-4 32-13 9-9 14-20 14-32l0-238c0-13-5-23-14-32-9-9-20-14-32-14z m82 46l0 238c0 22-8 42-24 58-16 16-35 24-58 24l-238 0c-23 0-42-8-58-24-16-16-24-36-24-58l0-238c0-23 8-42 24-58 16-16 35-24 58-24l238 0c23 0 42 8 58 24 16 16 24 35 24 58z"/>
    </symbol>
  
    <symbol id="icon-react-icon" viewBox="0 0 512 512">
      <path d="m405 255c0-19-25-38-63-50 9-38 5-69-12-79-4-2-8-3-13-3l0 13c2 0 5 1 6 2 9 4 12 22 10 46-1 5-2 11-4 18-11-3-24-6-38-7-8-11-17-22-25-30 19-19 38-29 51-29l0-13c-17 0-39 11-61 32-22-20-44-32-61-32l0 13c13 0 31 10 51 29-8 9-17 19-25 30-14 1-27 4-39 7-1-6-2-12-3-18-3-23 1-41 9-46 2-1 4-2 7-2l0-13c-5 0-10 1-14 3-17 10-20 41-12 79-37 12-62 31-62 50 0 20 25 39 63 50-9 39-5 70 12 80 4 2 8 3 14 3 16 0 38-12 60-33 22 21 44 33 61 33 5 0 10-1 14-4 17-9 21-40 12-79 38-11 62-30 62-50z m-79-40c-2 8-5 16-8 24-3-5-5-10-8-15-3-5-6-9-9-14 9 1 17 3 25 5z m-28 64c-5 9-9 16-14 24-10 0-19 1-28 1-9 0-18-1-27-1-5-7-10-15-15-23-5-8-9-16-13-25 4-8 8-16 13-24 5-8 10-16 15-23 9-1 18-1 27-1 9 0 18 0 27 1 5 7 10 15 15 23 5 8 9 16 13 24-4 8-8 17-13 24z m20-7c3 8 6 16 8 24-8 2-16 3-25 5 3-5 6-10 9-15 3-5 5-10 8-14z m-62 64c-5-5-11-12-17-19 6 0 11 0 17 0 6 0 11 0 17 0-6 7-11 14-17 19z m-45-35c-9-2-17-3-25-5 2-8 5-16 8-24 3 5 5 10 8 14 3 5 6 10 9 15z m45-127c6 6 11 13 17 20-6-1-11-1-17-1-6 0-11 0-17 1 6-7 11-14 17-20z m-45 36c-3 5-6 9-9 14-3 5-5 10-8 15-3-8-6-16-8-24 8-2 16-4 25-5z m-55 76c-22-9-36-21-36-31 0-9 14-21 36-30 5-3 11-5 17-7 3 12 8 25 13 37-5 13-10 25-13 37-6-2-12-4-17-6z m33 87c-9-5-12-23-9-46 0-6 1-12 3-18 12 3 25 5 38 7 8 11 17 21 25 30-19 18-38 29-51 29-2-1-5-1-6-2z m144-46c3 23-1 41-9 46-2 1-4 1-7 1-13 0-31-10-51-28 8-9 17-19 25-30 14-2 27-4 39-7 1 6 2 12 3 18z m23-41c-5 2-11 4-17 6-3-12-8-24-13-37 5-12 10-25 13-37 6 2 12 4 17 7 22 9 36 21 36 30 0 10-14 22-36 31z m-72-31c0 16-13 28-28 28-15 0-28-12-28-28 0-15 13-27 28-27 15 0 28 12 28 27z"/>
    </symbol>
  
    <symbol id="icon-magnifying-glass" viewBox="0 0 512 512">
      <path d="m291 53c-91 0-164 74-164 164c0 31 8 60 23 85l-79 79l0 0c-8 8-14 20-14 33c0 25 21 45 46 45c12 0 24-5 32-14l0 1l82-82c22 11 47 17 74 17c90 0 164-73 164-164c0-90-74-164-164-164z m1 263c-57 0-103-45-103-102c0-56 46-102 103-102c56 0 102 46 102 102c0 57-46 102-102 102z"/>
    </symbol>
  
    <symbol id="icon-trash-o" viewBox="0 0 512 512">
      <path d="m201 210l0 165c0 3-1 5-2 6-2 2-4 3-7 3l-18 0c-3 0-5-1-7-3-2-1-2-3-2-6l0-165c0-2 0-5 2-6 2-2 4-3 7-3l18 0c3 0 5 1 7 3 1 1 2 4 2 6z m73 0l0 165c0 3-1 5-2 6-2 2-4 3-7 3l-18 0c-3 0-5-1-7-3-1-1-2-3-2-6l0-165c0-2 1-5 2-6 2-2 4-3 7-3l18 0c3 0 5 1 7 3 1 1 2 4 2 6z m73 0l0 165c0 3 0 5-2 6-2 2-4 3-7 3l-18 0c-3 0-5-1-7-3-1-1-2-3-2-6l0-165c0-2 1-5 2-6 2-2 4-3 7-3l18 0c3 0 5 1 7 3 2 1 2 4 2 6z m37 207l0-271-256 0 0 271c0 4 1 8 2 12 1 3 3 6 4 7 2 2 3 3 3 3l238 0c0 0 1-1 3-3 1-1 3-4 4-7 1-4 2-8 2-12z m-192-307l128 0-14-34c-1-1-3-2-5-3l-90 0c-2 1-4 2-5 3z m265 9l0 18c0 3-1 5-2 7-2 1-4 2-7 2l-27 0 0 271c0 16-5 30-14 41-9 12-20 17-32 17l-238 0c-12 0-23-5-32-16-9-11-14-25-14-41l0-272-27 0c-3 0-5-1-7-2-1-2-2-4-2-7l0-18c0-3 1-5 2-7 2-1 4-2 7-2l88 0 20-48c3-7 8-13 16-18 7-5 15-7 22-7l92 0c7 0 15 2 22 7 8 5 13 11 16 18l20 48 88 0c3 0 5 1 7 2 1 2 2 4 2 7z"/>
    </symbol>
  
</svg>
