<svg xmlns="http://www.w3.org/2000/svg" style="display: none;">
  
    <symbol id="icon-stats-bars" viewBox="0 0 512 512">
      <path d="m176 96l64 0 0 320-64 0z m-96 224l64 0 0 96-64 0z m192-64l64 0 0 160-64 0z m96-64l64 0 0 224-64 0z"/>
    </symbol>
  
    <symbol id="icon-flash" viewBox="0 0 512 512">
      <path d="m96 288l147 0-51 192 224-256-147 0 51-192z"/>
    </symbol>
  
    <symbol id="icon-lightning-1" viewBox="0 0 512 512">
      <path d="m192 384l32 32l-32 96l96-96l-32-32l32-64z m320-249c0-49-40-89-89-89c-3 0-5 0-7 0c-23-29-58-46-96-46c-38 0-73 17-96 46c-2 0-4 0-7 0c-49 0-89 40-89 89c0 5 1 10 2 15c-1 1-2 1-2 2c-5-1-11-1-16-1c-62 0-112 50-112 112c0 62 50 112 112 112c14 0 27-3 40-7c1 0 2 1 3 2l29-19c-10-6-19-14-26-23c-13 9-29 15-46 15c-44 0-80-36-80-80c0-44 36-80 80-80c11 0 21 2 30 6c1-1 2-2 2-3c6-10 13-20 21-28c23-24 55-39 91-39c50 0 92 29 114 70c5-2 11-4 17-5l13-1c12 0 24 3 34 8c12 5 21 13 29 23c10 14 17 30 17 49c0 44-36 80-80 80c-17 0-33-6-46-15c-14 17-32 30-53 38l-6 12l18 18c17-7 33-16 47-29c13 5 26 8 40 8c62 0 112-50 112-112c0-26-9-49-24-68c15-16 24-37 24-60z m-46 37c-19-13-41-21-66-21c-5 0-11 0-16 1c-30-41-77-65-128-65c-34 0-66 11-93 30c8-23 29-39 54-39c8 0 15 1 22 4c15-30 46-50 81-50c36 0 66 20 81 50c7-3 14-4 22-4c31 0 57 25 57 57c0 14-6 27-14 37z"/>
    </symbol>
  
    <symbol id="icon-android-close" viewBox="0 0 512 512">
      <path d="m405 137l-30-30-119 119-119-119-30 30 119 119-119 119 30 30 119-119 119 119 30-30-119-119z"/>
    </symbol>
  
    <symbol id="icon-android-remove" viewBox="0 0 512 512">
      <path d="m96 235l320 0 0 42-320 0z"/>
    </symbol>
  
    <symbol id="icon-caret-up" viewBox="0 0 512 512">
      <path d="m402 347c0 5-2 10-5 13-4 4-8 6-13 6l-256 0c-5 0-9-2-13-6-3-3-5-8-5-13 0-5 2-9 5-12l128-128c4-4 8-6 13-6 5 0 9 2 13 6l128 128c3 3 5 7 5 12z"/>
    </symbol>
  
    <symbol id="icon-fontawesome-webfont" viewBox="0 0 512 512">
      <path d="m475 256c0 48-14 91-41 129c-28 38-64 65-109 79c-5 1-8 1-11-2c-2-2-3-5-3-8l0-61c0-18-5-32-15-40c11-1 20-3 29-5c9-3 18-6 27-11c9-6 17-12 23-19c6-8 11-18 15-30c4-13 6-27 6-43c0-23-8-43-23-59c7-18 7-37-2-59c-5-1-13 0-23 4c-10 3-19 8-26 12l-11 7c-18-5-36-7-55-7c-19 0-37 2-55 7c-3-2-7-5-12-8c-5-3-13-6-24-11c-11-4-19-5-24-4c-9 22-9 41-2 59c-15 16-23 36-23 59c0 16 2 30 6 42c4 13 9 23 15 30c6 8 14 14 23 20c9 5 18 8 27 11c8 2 18 4 29 5c-8 7-12 17-14 29c-4 2-8 4-13 5c-4 1-10 1-16 1c-6 0-13-2-19-6c-6-4-11-10-16-18c-3-6-8-11-14-15c-5-4-10-6-14-7l-5-1c-4 0-7 1-9 2c-1 1-2 2-1 3c0 1 1 3 2 4c2 1 3 2 4 3l2 2c4 2 8 5 13 11c4 5 7 10 9 14l2 7c3 7 7 13 13 17c6 5 12 8 19 9c7 1 14 2 20 2c6 0 12 0 16-1l6-1c0 7 0 16 1 25c0 10 0 15 0 16c0 3-2 6-4 8c-2 3-6 3-11 2c-45-14-81-41-109-79c-27-38-41-81-41-129c0-40 9-77 29-110c20-34 46-60 80-80c33-20 70-29 110-29c40 0 77 9 110 29c34 20 60 46 80 80c20 33 29 70 29 110z"/>
    </symbol>
  
    <symbol id="icon-cup" viewBox="0 0 512 512">
      <path d="m450 80l-20-58c-4-13-16-22-30-22l-288 0c-14 0-26 9-30 22l-20 58c-17 1-30 15-30 32l0 48c0 18 14 32 32 32l17 0c0 1-1 2-1 4l32 288c2 16 16 28 32 28l224 0c16 0 30-12 32-28l32-288c0-2-1-3-1-4l17 0c18 0 32-14 32-32l0-48c0-17-13-31-30-32z m-338-48l288 0l16 48l-320 0z m32 448l-5-48l234 0l-5 48z m231-64l-238 0l-18-160l274 0z m20-176l-278 0l-5-48l288 0z m53-80l-384 0l0-48l384 0z"/>
    </symbol>
  
    <symbol id="icon-android-add" viewBox="0 0 512 512">
      <path d="m416 277l-139 0 0 139-42 0 0-139-139 0 0-42 139 0 0-139 42 0 0 139 139 0z"/>
    </symbol>
  
    <symbol id="icon-square-o" viewBox="0 0 512 512">
      <path d="m375 73l-238 0c-12 0-23 5-32 14-9 9-14 19-14 32l0 238c0 12 5 23 14 32 9 9 20 13 32 13l238 0c12 0 23-4 32-13 9-9 14-20 14-32l0-238c0-13-5-23-14-32-9-9-20-14-32-14z m82 46l0 238c0 22-8 42-24 58-16 16-35 24-58 24l-238 0c-23 0-42-8-58-24-16-16-24-36-24-58l0-238c0-23 8-42 24-58 16-16 35-24 58-24l238 0c23 0 42 8 58 24 16 16 24 35 24 58z"/>
    </symbol>
  
    <symbol id="icon-react-icon" viewBox="0 0 512 512">
      <path d="m405 255c0-19-25-38-63-50 9-38 5-69-12-79-4-2-8-3-13-3l0 13c2 0 5 1 6 2 9 4 12 22 10 46-1 5-2 11-4 18-11-3-24-6-38-7-8-11-17-22-25-30 19-19 38-29 51-29l0-13c-17 0-39 11-61 32-22-20-44-32-61-32l0 13c13 0 31 10 51 29-8 9-17 19-25 30-14 1-27 4-39 7-1-6-2-12-3-18-3-23 1-41 9-46 2-1 4-2 7-2l0-13c-5 0-10 1-14 3-17 10-20 41-12 79-37 12-62 31-62 50 0 20 25 39 63 50-9 39-5 70 12 80 4 2 8 3 14 3 16 0 38-12 60-33 22 21 44 33 61 33 5 0 10-1 14-4 17-9 21-40 12-79 38-11 62-30 62-50z m-79-40c-2 8-5 16-8 24-3-5-5-10-8-15-3-5-6-9-9-14 9 1 17 3 25 5z m-28 64c-5 9-9 16-14 24-10 0-19 1-28 1-9 0-18-1-27-1-5-7-10-15-15-23-5-8-9-16-13-25 4-8 8-16 13-24 5-8 10-16 15-23 9-1 18-1 27-1 9 0 18 0 27 1 5 7 10 15 15 23 5 8 9 16 13 24-4 8-8 17-13 24z m20-7c3 8 6 16 8 24-8 2-16 3-25 5 3-5 6-10 9-15 3-5 5-10 8-14z m-62 64c-5-5-11-12-17-19 6 0 11 0 17 0 6 0 11 0 17 0-6 7-11 14-17 19z m-45-35c-9-2-17-3-25-5 2-8 5-16 8-24 3 5 5 10 8 14 3 5 6 10 9 15z m45-127c6 6 11 13 17 20-6-1-11-1-17-1-6 0-11 0-17 1 6-7 11-14 17-20z m-45 36c-3 5-6 9-9 14-3 5-5 10-8 15-3-8-6-16-8-24 8-2 16-4 25-5z m-55 76c-22-9-36-21-36-31 0-9 14-21 36-30 5-3 11-5 17-7 3 12 8 25 13 37-5 13-10 25-13 37-6-2-12-4-17-6z m33 87c-9-5-12-23-9-46 0-6 1-12 3-18 12 3 25 5 38 7 8 11 17 21 25 30-19 18-38 29-51 29-2-1-5-1-6-2z m144-46c3 23-1 41-9 46-2 1-4 1-7 1-13 0-31-10-51-28 8-9 17-19 25-30 14-2 27-4 39-7 1 6 2 12 3 18z m23-41c-5 2-11 4-17 6-3-12-8-24-13-37 5-12 10-25 13-37 6 2 12 4 17 7 22 9 36 21 36 30 0 10-14 22-36 31z m-72-31c0 16-13 28-28 28-15 0-28-12-28-28 0-15 13-27 28-27 15 0 28 12 28 27z"/>
    </symbol>
  
    <symbol id="icon-plug" viewBox="0 0 512 512">
      <path d="m502 102l-1 0c-12-12-32-12-45 0l-22 23-46-46 23-22c13-13 13-33 0-45l0-1c-13-12-33-12-45 0l-24 24c-31-20-73-17-101 11l-12 12c-55 54-61 139-20 200l-2 2c-31 32-31 82 0 113 6 7 6 17 0 23-6 7-16 6-22 0l-45-44c-31-32-82-32-114-1-31 31-31 82 0 113l5 5c12 12 32 12 44 0l1-1c12-12 12-32 0-45l-4-4c-6-6-7-16-1-22 6-7 17-7 23-1l45 45c31 31 83 32 114 0 31-31 31-81 0-113-7-6-7-16 0-22l2-2c61 41 146 35 200-20l13-12c27-28 30-70 10-101l24-24c12-12 12-32 0-45z m-57 147c-19 19-49 19-68 0l-113-113c-19-19-19-49 0-68 15-15 37-18 55-9l-21 21c-13 12-13 32 0 45l0 0c12 12 32 12 45 0l23-23 45 45-23 23c-12 13-12 33 0 45l1 0c12 13 32 13 44 0l21-20c9 17 6 39-9 54z"/>
    </symbol>
  
    <symbol id="icon-chain-broken" viewBox="0 0 512 512">
      <path d="m144 363l-73 73c-2 2-5 3-7 3-2 0-4-1-7-3-1-2-2-4-2-6 0-3 1-5 2-7l74-73c1-2 4-3 6-3 3 0 5 1 7 3 1 2 2 4 2 7 0 2-1 4-2 6z m48 12l0 91c0 3-1 5-3 7-1 2-3 2-6 2-3 0-5 0-7-2-1-2-2-4-2-7l0-91c0-3 1-5 2-7 2-1 4-2 7-2 3 0 5 1 6 2 2 2 3 4 3 7z m-64-64c0 3-1 5-3 6-1 2-3 3-6 3l-92 0c-2 0-4-1-6-3-2-1-3-3-3-6 0-3 1-5 3-7 2-1 4-2 6-2l92 0c3 0 5 1 6 2 2 2 3 4 3 7z m361 36c0 23-8 43-24 58l-42 42c-16 16-35 24-58 24-23 0-43-8-58-24l-96-96c-4-4-8-9-12-16l68-5 78 78c6 5 12 8 20 8 8 0 14-3 19-8l42-41c6-6 8-12 8-20 0-7-2-14-8-19l-78-79 5-68c7 4 12 8 16 12l96 96c16 17 24 36 24 58z m-176-206l-68 5-78-79c-6-5-12-8-20-8-7 0-14 3-19 8l-42 42c-6 5-8 12-8 19 0 8 2 14 8 19l78 79-5 68c-7-4-12-8-16-12l-96-96c-16-16-24-36-24-58 0-23 8-42 24-58l42-42c16-16 35-23 58-23 23 0 43 8 58 24l96 96c4 4 8 9 12 16z m181 24c0 2-1 4-3 6-2 2-4 3-6 3l-92 0c-3 0-5-1-6-3-2-2-3-4-3-6 0-3 1-5 3-7 1-2 3-3 6-3l92 0c2 0 4 1 6 3 2 2 3 4 3 7z m-156-156l0 92c0 2-1 4-2 6-2 2-4 3-7 3-3 0-5-1-6-3-2-2-3-4-3-6l0-92c0-3 1-5 3-6 1-2 3-3 6-3 3 0 5 1 7 3 1 1 2 3 2 6z m117 43l-74 73c-2 2-4 3-6 3-2 0-5-1-7-3-1-1-2-4-2-6 0-3 1-5 2-7l73-73c2-2 5-2 7-2 2 0 5 0 7 2 1 2 2 4 2 7 0 2-1 4-2 6z"/>
    </symbol>
  
    <symbol id="icon-search" viewBox="0 0 512 512">
      <path d="m450 395c10 12 11 22 3 32c0 0-24 24-24 24c-12 10-24 10-35 0c0 0-97-98-97-98c-25 15-52 22-80 22c-44 0-82-16-114-49c-33-32-49-70-49-114c0-44 16-81 46-112c31-31 68-47 112-47c44 0 82 16 115 49c32 32 49 70 49 114c0 30-8 58-24 83c0 0 98 96 98 96m-348-183c0 30 12 57 35 80c23 23 50 35 80 35c30 0 56-11 77-33c22-21 33-47 33-78c0-30-12-56-35-79c-23-23-50-35-80-35c-30 0-56 11-77 33c-22 21-33 47-33 77"/>
    </symbol>
  
    <symbol id="icon-magnifying-glass" viewBox="0 0 512 512">
      <path d="m291 53c-91 0-164 74-164 164c0 31 8 60 23 85l-79 79l0 0c-8 8-14 20-14 33c0 25 21 45 46 45c12 0 24-5 32-14l0 1l82-82c22 11 47 17 74 17c90 0 164-73 164-164c0-90-74-164-164-164z m1 263c-57 0-103-45-103-102c0-56 46-102 103-102c56 0 102 46 102 102c0 57-46 102-102 102z"/>
    </symbol>
  
</svg>
